<?xml version="1.0" standalone="no"?>
<!DOCTYPE svg PUBLIC "-//W3C//DTD SVG 20010904//EN"
 "http://www.w3.org/TR/2001/REC-SVG-20010904/DTD/svg10.dtd">
<svg version="1.0" xmlns="http://www.w3.org/2000/svg"
 width="120.000000pt" height="120.000000pt" viewBox="0 0 120.000000 120.000000"
 preserveAspectRatio="xMidYMid meet">
<metadata>
Created by potrace 1.14, written by Peter Selinger 2001-2017
</metadata>
<g transform="translate(0.000000,120.000000) scale(0.100000,-0.100000)"
fill="#000000" stroke="none">
<path d="M404 1160 c-34 -14 -42 -61 -44 -270 -2 -222 -5 -351 -15 -530 -4
-69 -8 -152 -10 -186 -5 -122 31 -154 165 -149 47 2 96 6 110 8 14 3 45 8 70
12 53 8 75 13 75 15 0 1 9 3 20 5 26 5 60 13 60 15 0 1 10 3 23 6 37 7 101 43
110 62 11 22 8 52 -7 80 -10 19 -27 27 -52 24 -25 -3 -59 -12 -84 -22 -66 -25
-232 -58 -324 -64 l-39 -3 3 46 c20 313 31 724 25 891 -1 48 -44 77 -86 60z"/>
</g>
</svg>
